<mxfile host="app.diagrams.net" modified="2023-11-22T15:35:10.648Z" agent="Mozilla/5.0 (Windows NT 10.0; Win64; x64) AppleWebKit/537.36 (KHTML, like Gecko) Chrome/119.0.0.0 Safari/537.36 Edg/119.0.0.0" etag="A7ya-i3Kx_KzYtAZgYk6" version="22.1.3" type="device">
  <diagram name="Seite-1" id="9-2FDo8BXbrhx7Upjdg0">
    <mxGraphModel dx="1425" dy="795" grid="1" gridSize="10" guides="1" tooltips="1" connect="1" arrows="1" fold="1" page="1" pageScale="1" pageWidth="827" pageHeight="1169" math="0" shadow="0">
      <root>
        <mxCell id="0" />
        <mxCell id="1" parent="0" />
        <mxCell id="-UCjYM1BpWKyIJnPKLj8-3" value="" style="edgeStyle=orthogonalEdgeStyle;rounded=0;orthogonalLoop=1;jettySize=auto;html=1;" edge="1" parent="1" source="-UCjYM1BpWKyIJnPKLj8-1" target="-UCjYM1BpWKyIJnPKLj8-4">
          <mxGeometry relative="1" as="geometry">
            <mxPoint x="585" y="120" as="sourcePoint" />
            <mxPoint x="510" y="220" as="targetPoint" />
          </mxGeometry>
        </mxCell>
        <mxCell id="-UCjYM1BpWKyIJnPKLj8-44" value="" style="edgeStyle=orthogonalEdgeStyle;rounded=0;orthogonalLoop=1;jettySize=auto;html=1;" edge="1" parent="1" source="-UCjYM1BpWKyIJnPKLj8-1" target="-UCjYM1BpWKyIJnPKLj8-4">
          <mxGeometry relative="1" as="geometry" />
        </mxCell>
        <mxCell id="-UCjYM1BpWKyIJnPKLj8-1" value="User" style="shape=umlActor;verticalLabelPosition=bottom;verticalAlign=top;html=1;align=center;" vertex="1" parent="1">
          <mxGeometry x="330" y="235" width="30" height="60" as="geometry" />
        </mxCell>
        <mxCell id="-UCjYM1BpWKyIJnPKLj8-6" value="" style="group" vertex="1" connectable="0" parent="1">
          <mxGeometry x="390" y="190" width="200" height="130" as="geometry" />
        </mxCell>
        <mxCell id="-UCjYM1BpWKyIJnPKLj8-4" value="Application User Interface" style="html=1;whiteSpace=wrap;" vertex="1" parent="-UCjYM1BpWKyIJnPKLj8-6">
          <mxGeometry x="20" y="50" width="160" height="50" as="geometry" />
        </mxCell>
        <mxCell id="-UCjYM1BpWKyIJnPKLj8-5" value="Frontend" style="swimlane;" vertex="1" parent="-UCjYM1BpWKyIJnPKLj8-6">
          <mxGeometry width="200" height="130" as="geometry">
            <mxRectangle width="90" height="30" as="alternateBounds" />
          </mxGeometry>
        </mxCell>
        <mxCell id="-UCjYM1BpWKyIJnPKLj8-12" value="" style="group" vertex="1" connectable="0" parent="1">
          <mxGeometry x="40" y="380" width="770" height="440" as="geometry" />
        </mxCell>
        <mxCell id="-UCjYM1BpWKyIJnPKLj8-7" value="Backend" style="swimlane;" vertex="1" parent="-UCjYM1BpWKyIJnPKLj8-12">
          <mxGeometry x="-35.54" y="-20" width="805.54" height="460" as="geometry" />
        </mxCell>
        <mxCell id="-UCjYM1BpWKyIJnPKLj8-9" value="Flask App" style="html=1;whiteSpace=wrap;" vertex="1" parent="-UCjYM1BpWKyIJnPKLj8-7">
          <mxGeometry x="396.85" y="120" width="190" height="50" as="geometry" />
        </mxCell>
        <mxCell id="-UCjYM1BpWKyIJnPKLj8-14" value="API" style="html=1;whiteSpace=wrap;" vertex="1" parent="-UCjYM1BpWKyIJnPKLj8-7">
          <mxGeometry x="396.84615384615387" y="50" width="190" height="50" as="geometry" />
        </mxCell>
        <mxCell id="-UCjYM1BpWKyIJnPKLj8-17" value="" style="endArrow=classic;startArrow=classic;html=1;rounded=0;entryX=0.5;entryY=1;entryDx=0;entryDy=0;exitX=0.5;exitY=0;exitDx=0;exitDy=0;" edge="1" parent="-UCjYM1BpWKyIJnPKLj8-7" source="-UCjYM1BpWKyIJnPKLj8-9" target="-UCjYM1BpWKyIJnPKLj8-14">
          <mxGeometry width="50" height="50" relative="1" as="geometry">
            <mxPoint x="462" y="160" as="sourcePoint" />
            <mxPoint x="521.2307692307693" y="110" as="targetPoint" />
          </mxGeometry>
        </mxCell>
        <mxCell id="-UCjYM1BpWKyIJnPKLj8-28" value="" style="group" vertex="1" connectable="0" parent="-UCjYM1BpWKyIJnPKLj8-7">
          <mxGeometry x="35.54" y="270" width="724.46" height="150" as="geometry" />
        </mxCell>
        <mxCell id="-UCjYM1BpWKyIJnPKLj8-23" value="Database Management System" style="rounded=0;whiteSpace=wrap;html=1;" vertex="1" parent="-UCjYM1BpWKyIJnPKLj8-28">
          <mxGeometry width="724.46" height="60" as="geometry" />
        </mxCell>
        <mxCell id="-UCjYM1BpWKyIJnPKLj8-18" value="Ontology Store" style="shape=datastore;whiteSpace=wrap;html=1;" vertex="1" parent="-UCjYM1BpWKyIJnPKLj8-28">
          <mxGeometry x="39.99999999999999" y="90" width="60" height="60" as="geometry" />
        </mxCell>
        <mxCell id="-UCjYM1BpWKyIJnPKLj8-19" value="Metadata Store" style="shape=datastore;whiteSpace=wrap;html=1;" vertex="1" parent="-UCjYM1BpWKyIJnPKLj8-28">
          <mxGeometry x="344" y="90" width="60" height="60" as="geometry" />
        </mxCell>
        <mxCell id="-UCjYM1BpWKyIJnPKLj8-20" value="Property Store" style="shape=datastore;whiteSpace=wrap;html=1;" vertex="1" parent="-UCjYM1BpWKyIJnPKLj8-28">
          <mxGeometry x="620" y="90" width="60" height="60" as="geometry" />
        </mxCell>
        <mxCell id="-UCjYM1BpWKyIJnPKLj8-26" value="" style="endArrow=classic;startArrow=classic;html=1;rounded=0;exitX=0.516;exitY=1.017;exitDx=0;exitDy=0;entryX=0.5;entryY=0;entryDx=0;entryDy=0;exitPerimeter=0;" edge="1" parent="-UCjYM1BpWKyIJnPKLj8-28" source="-UCjYM1BpWKyIJnPKLj8-23" target="-UCjYM1BpWKyIJnPKLj8-19">
          <mxGeometry width="50" height="50" relative="1" as="geometry">
            <mxPoint x="90" y="110" as="sourcePoint" />
            <mxPoint x="90" y="80" as="targetPoint" />
          </mxGeometry>
        </mxCell>
        <mxCell id="-UCjYM1BpWKyIJnPKLj8-25" value="" style="endArrow=classic;startArrow=classic;html=1;rounded=0;exitX=0.897;exitY=1;exitDx=0;exitDy=0;entryX=0.5;entryY=0;entryDx=0;entryDy=0;exitPerimeter=0;" edge="1" parent="-UCjYM1BpWKyIJnPKLj8-28" source="-UCjYM1BpWKyIJnPKLj8-23" target="-UCjYM1BpWKyIJnPKLj8-20">
          <mxGeometry width="50" height="50" relative="1" as="geometry">
            <mxPoint x="80" y="100" as="sourcePoint" />
            <mxPoint x="80" y="70" as="targetPoint" />
          </mxGeometry>
        </mxCell>
        <mxCell id="-UCjYM1BpWKyIJnPKLj8-42" value="" style="endArrow=classic;startArrow=classic;html=1;rounded=0;exitX=1;exitY=0.5;exitDx=0;exitDy=0;entryX=0;entryY=0.5;entryDx=0;entryDy=0;" edge="1" parent="-UCjYM1BpWKyIJnPKLj8-7" source="-UCjYM1BpWKyIJnPKLj8-9" target="-UCjYM1BpWKyIJnPKLj8-38">
          <mxGeometry width="50" height="50" relative="1" as="geometry">
            <mxPoint x="258.54" y="155" as="sourcePoint" />
            <mxPoint x="406.54" y="155" as="targetPoint" />
          </mxGeometry>
        </mxCell>
        <mxCell id="-UCjYM1BpWKyIJnPKLj8-43" value="" style="group" vertex="1" connectable="0" parent="-UCjYM1BpWKyIJnPKLj8-7">
          <mxGeometry x="611.54" y="95" width="184.46000000000004" height="100" as="geometry" />
        </mxCell>
        <mxCell id="-UCjYM1BpWKyIJnPKLj8-38" value="Service Adapter" style="rounded=0;whiteSpace=wrap;html=1;align=left;spacingLeft=4;" vertex="1" parent="-UCjYM1BpWKyIJnPKLj8-43">
          <mxGeometry width="184.46" height="100" as="geometry" />
        </mxCell>
        <mxCell id="-UCjYM1BpWKyIJnPKLj8-36" value="&lt;font style=&quot;font-size: 10px;&quot;&gt;Service&lt;/font&gt;" style="rounded=0;whiteSpace=wrap;html=1;" vertex="1" parent="-UCjYM1BpWKyIJnPKLj8-43">
          <mxGeometry x="124.46000000000004" y="5" width="60" height="20" as="geometry" />
        </mxCell>
        <mxCell id="-UCjYM1BpWKyIJnPKLj8-40" value="&lt;font style=&quot;font-size: 10px;&quot;&gt;...&lt;/font&gt;" style="rounded=0;whiteSpace=wrap;html=1;" vertex="1" parent="-UCjYM1BpWKyIJnPKLj8-43">
          <mxGeometry x="124.46000000000004" y="75" width="60" height="20" as="geometry" />
        </mxCell>
        <mxCell id="-UCjYM1BpWKyIJnPKLj8-39" value="&lt;font style=&quot;font-size: 10px;&quot;&gt;Service&lt;/font&gt;" style="rounded=0;whiteSpace=wrap;html=1;" vertex="1" parent="-UCjYM1BpWKyIJnPKLj8-43">
          <mxGeometry x="124.46000000000004" y="40" width="60" height="20" as="geometry" />
        </mxCell>
        <mxCell id="-UCjYM1BpWKyIJnPKLj8-13" value="" style="group" vertex="1" connectable="0" parent="-UCjYM1BpWKyIJnPKLj8-12">
          <mxGeometry y="30" width="213.23" height="190" as="geometry" />
        </mxCell>
        <mxCell id="-UCjYM1BpWKyIJnPKLj8-11" value="Ontology Adapter" style="html=1;whiteSpace=wrap;align=right;spacingRight=10;" vertex="1" parent="-UCjYM1BpWKyIJnPKLj8-13">
          <mxGeometry width="213.23" height="190" as="geometry" />
        </mxCell>
        <mxCell id="-UCjYM1BpWKyIJnPKLj8-10" value="Brick" style="html=1;whiteSpace=wrap;" vertex="1" parent="-UCjYM1BpWKyIJnPKLj8-13">
          <mxGeometry y="65.3125" width="71.07666666666667" height="59.375" as="geometry" />
        </mxCell>
        <mxCell id="-UCjYM1BpWKyIJnPKLj8-30" value="" style="endArrow=classic;startArrow=classic;html=1;rounded=0;entryX=0.31;entryY=1.007;entryDx=0;entryDy=0;entryPerimeter=0;exitX=0.091;exitY=0;exitDx=0;exitDy=0;exitPerimeter=0;" edge="1" parent="-UCjYM1BpWKyIJnPKLj8-12" source="-UCjYM1BpWKyIJnPKLj8-23" target="-UCjYM1BpWKyIJnPKLj8-11">
          <mxGeometry width="50" height="50" relative="1" as="geometry">
            <mxPoint x="390" y="210" as="sourcePoint" />
            <mxPoint x="440" y="160" as="targetPoint" />
          </mxGeometry>
        </mxCell>
        <mxCell id="-UCjYM1BpWKyIJnPKLj8-29" value="" style="endArrow=classic;startArrow=classic;html=1;rounded=0;exitX=1;exitY=0.5;exitDx=0;exitDy=0;" edge="1" parent="-UCjYM1BpWKyIJnPKLj8-12" source="-UCjYM1BpWKyIJnPKLj8-11" target="-UCjYM1BpWKyIJnPKLj8-9">
          <mxGeometry width="50" height="50" relative="1" as="geometry">
            <mxPoint x="390" y="210" as="sourcePoint" />
            <mxPoint x="390" y="120" as="targetPoint" />
          </mxGeometry>
        </mxCell>
        <mxCell id="-UCjYM1BpWKyIJnPKLj8-15" value="" style="endArrow=classic;html=1;rounded=0;exitX=0.25;exitY=0;exitDx=0;exitDy=0;" edge="1" parent="1" source="-UCjYM1BpWKyIJnPKLj8-14">
          <mxGeometry width="50" height="50" relative="1" as="geometry">
            <mxPoint x="360" y="340" as="sourcePoint" />
            <mxPoint x="449" y="290" as="targetPoint" />
          </mxGeometry>
        </mxCell>
        <mxCell id="-UCjYM1BpWKyIJnPKLj8-16" value="" style="endArrow=classic;html=1;rounded=0;entryX=0.683;entryY=-0.002;entryDx=0;entryDy=0;entryPerimeter=0;" edge="1" parent="1" target="-UCjYM1BpWKyIJnPKLj8-14">
          <mxGeometry width="50" height="50" relative="1" as="geometry">
            <mxPoint x="530" y="290" as="sourcePoint" />
            <mxPoint x="395" y="240" as="targetPoint" />
          </mxGeometry>
        </mxCell>
        <mxCell id="-UCjYM1BpWKyIJnPKLj8-24" value="" style="endArrow=classic;startArrow=classic;html=1;rounded=0;exitX=0.5;exitY=0;exitDx=0;exitDy=0;" edge="1" parent="1" source="-UCjYM1BpWKyIJnPKLj8-18">
          <mxGeometry width="50" height="50" relative="1" as="geometry">
            <mxPoint x="390" y="610" as="sourcePoint" />
            <mxPoint x="110" y="690" as="targetPoint" />
          </mxGeometry>
        </mxCell>
        <mxCell id="-UCjYM1BpWKyIJnPKLj8-31" value="" style="endArrow=classic;startArrow=classic;html=1;rounded=0;entryX=0.5;entryY=1;entryDx=0;entryDy=0;" edge="1" parent="1" target="-UCjYM1BpWKyIJnPKLj8-9">
          <mxGeometry width="50" height="50" relative="1" as="geometry">
            <mxPoint x="496" y="630" as="sourcePoint" />
            <mxPoint x="480" y="540" as="targetPoint" />
          </mxGeometry>
        </mxCell>
      </root>
    </mxGraphModel>
  </diagram>
</mxfile>
